<svg width="80" height="55" viewBox="0 0 80 55" fill="none" xmlns="http://www.w3.org/2000/svg">
<mask id="path-1-outside-1_5_33" maskUnits="userSpaceOnUse" x="-1.5" y="-1" width="83" height="57" fill="black">
<rect fill="white" x="-1.5" y="-1" width="83" height="57"/>
<path d="M16.916 44.64C11.4547 44.64 7.27333 42.8267 4.372 39.2C1.51333 35.5307 0.0840001 30.56 0.0840001 24.288C0.0840001 19.8507 0.916 16.096 2.58 13.024C4.244 9.90933 6.44133 7.584 9.172 6.048C11.9453 4.46933 15.0173 3.68 18.388 3.68C23.892 3.68 28.0307 5.42933 30.804 8.928C33.5773 12.384 34.964 17.2907 34.964 23.648C34.964 28.0427 34.1533 31.84 32.532 35.04C30.9533 38.1973 28.7987 40.5867 26.068 42.208C23.3373 43.8293 20.2867 44.64 16.916 44.64ZM17.556 40.8C20.244 40.8 22.2067 39.4347 23.444 36.704C24.724 33.9307 25.364 29.8133 25.364 24.352C25.364 18.5493 24.7667 14.304 23.572 11.616C22.42 8.88533 20.436 7.52 17.62 7.52C12.3293 7.52 9.684 12.8747 9.684 23.584C9.684 29.3013 10.3027 33.6107 11.54 36.512C12.82 39.3707 14.8253 40.8 17.556 40.8ZM63.6505 44H42.5305L40.4825 40.672C44.1518 33.7173 50.2105 20.2987 58.6585 0.415997H60.5785L67.8105 4.128L51.4905 35.232L48.6745 39.392L63.7145 38.496L64.3545 26.528L71.3305 25.952V37.984L79.5225 37.536V44H71.3305V54.24H63.6505V44Z"/>
</mask>
<path d="M4.372 39.2L3.58308 39.8146L3.59113 39.8247L4.372 39.2ZM2.58 13.024L3.45931 13.5003L3.46202 13.4952L2.58 13.024ZM9.172 6.048L9.66227 6.91958L9.6667 6.91706L9.172 6.048ZM30.804 8.928L30.0203 9.5492L30.0241 9.55387L30.804 8.928ZM32.532 35.04L31.64 34.588L31.6376 34.5928L32.532 35.04ZM26.068 42.208L25.5575 41.3481L26.068 42.208ZM23.444 36.704L22.536 36.2849L22.5331 36.2913L23.444 36.704ZM23.572 11.616L22.6506 12.0047L22.6543 12.0135L22.6582 12.0221L23.572 11.616ZM11.54 36.512L10.6202 36.9043L10.6237 36.9125L10.6273 36.9207L11.54 36.512ZM16.916 43.64C11.6987 43.64 7.83 41.9217 5.15287 38.5753L3.59113 39.8247C6.71667 43.7316 11.2106 45.64 16.916 45.64V43.64ZM5.16086 38.5854C2.47986 35.1441 1.084 30.4144 1.084 24.288H-0.916C-0.916 30.7056 0.546804 35.9172 3.58314 39.8146L5.16086 38.5854ZM1.084 24.288C1.084 19.9731 1.89308 16.3917 3.45929 13.5003L1.70071 12.5477C-0.0610821 15.8003 -0.916 19.7283 -0.916 24.288H1.084ZM3.46202 13.4952C5.04799 10.5266 7.11813 8.35065 9.66226 6.91957L8.68174 5.17642C5.76454 6.81735 3.44001 9.29206 1.69798 12.5528L3.46202 13.4952ZM9.6667 6.91706C12.2807 5.42908 15.1807 4.68 18.388 4.68V2.68C14.854 2.68 11.6099 3.50958 8.6773 5.17893L9.6667 6.91706ZM18.388 4.68C23.6651 4.68 27.4806 6.34519 30.0203 9.54919L31.5877 8.3068C28.5807 4.51347 24.1189 2.68 18.388 2.68V4.68ZM30.0241 9.55387C32.6045 12.7695 33.964 17.4218 33.964 23.648H35.964C35.964 17.1595 34.5502 11.9985 31.5839 8.30213L30.0241 9.55387ZM33.964 23.648C33.964 27.9204 33.1761 31.5562 31.64 34.588L33.424 35.492C35.1306 32.1238 35.964 28.1649 35.964 23.648H33.964ZM31.6376 34.5928C30.1348 37.5984 28.1052 39.8354 25.5575 41.3481L26.5785 43.0679C29.4921 41.3379 31.7719 38.7963 33.4264 35.4872L31.6376 34.5928ZM25.5575 41.3481C22.9909 42.8721 20.1185 43.64 16.916 43.64V45.64C20.4549 45.64 23.6838 44.7866 26.5785 43.0679L25.5575 41.3481ZM17.556 41.8C19.0778 41.8 20.4457 41.4104 21.6151 40.5969C22.7776 39.7882 23.6805 38.605 24.3549 37.1167L22.5331 36.2913C21.9702 37.5337 21.2731 38.3985 20.4729 38.9551C19.6796 39.507 18.7222 39.8 17.556 39.8V41.8ZM24.352 37.1231C25.723 34.1524 26.364 29.8615 26.364 24.352H24.364C24.364 29.7652 23.725 33.7089 22.536 36.2849L24.352 37.1231ZM26.364 24.352C26.364 18.5193 25.7694 14.0979 24.4858 11.2099L22.6582 12.0221C23.764 14.5101 24.364 18.5794 24.364 24.352H26.364ZM24.4934 11.2273C23.8603 9.72673 22.9689 8.53366 21.7869 7.72021C20.6013 6.90434 19.1953 6.52 17.62 6.52V8.52C18.8607 8.52 19.8547 8.81833 20.6531 9.36778C21.4551 9.91967 22.1317 10.7746 22.6506 12.0047L24.4934 11.2273ZM17.62 6.52C16.1199 6.52 14.7631 6.9026 13.5887 7.69505C12.4211 8.48286 11.4909 9.63673 10.7714 11.0931C9.34629 13.9779 8.684 18.1792 8.684 23.584H10.684C10.684 18.2795 11.3444 14.4488 12.5646 11.9789C13.1678 10.7579 13.8909 9.9038 14.7073 9.35295C15.5169 8.80672 16.4748 8.52 17.62 8.52V6.52ZM8.684 23.584C8.684 29.3444 9.30301 33.8158 10.6202 36.9043L12.4598 36.1197C11.3023 33.4055 10.684 29.2583 10.684 23.584H8.684ZM10.6273 36.9207C11.3206 38.4689 12.2417 39.6999 13.4236 40.5423C14.614 41.3908 16.0063 41.8 17.556 41.8V39.8C16.375 39.8 15.3993 39.4945 14.5844 38.9137C13.761 38.3268 13.0394 37.4137 12.4527 36.1033L10.6273 36.9207ZM63.6505 44H64.6505V43H63.6505V44ZM42.5305 44L41.6788 44.5241L41.9717 45H42.5305V44ZM40.4825 40.672L39.5981 40.2054L39.3318 40.7101L39.6308 41.1961L40.4825 40.672ZM58.6585 0.415997V-0.584003H57.9969L57.7381 0.0249395L58.6585 0.415997ZM60.5785 0.415997L61.0351 -0.473657L60.8202 -0.584003H60.5785V0.415997ZM67.8105 4.128L68.696 4.59262L69.1648 3.69911L68.2671 3.23834L67.8105 4.128ZM51.4905 35.232L52.3186 35.7926L52.35 35.7462L52.376 35.6966L51.4905 35.232ZM48.6745 39.392L47.8464 38.8314L46.7096 40.5108L48.734 40.3902L48.6745 39.392ZM63.7145 38.496L63.774 39.4942L64.6654 39.4411L64.7131 38.5494L63.7145 38.496ZM64.3545 26.528L64.2722 25.5314L63.4025 25.6032L63.3559 26.4746L64.3545 26.528ZM71.3305 25.952H72.3305V24.866L71.2482 24.9554L71.3305 25.952ZM71.3305 37.984H70.3305V39.0402L71.3851 38.9825L71.3305 37.984ZM79.5225 37.536H80.5225V36.4798L79.4679 36.5375L79.5225 37.536ZM79.5225 44V45H80.5225V44H79.5225ZM71.3305 44V43H70.3305V44H71.3305ZM71.3305 54.24V55.24H72.3305V54.24H71.3305ZM63.6505 54.24H62.6505V55.24H63.6505V54.24ZM63.6505 43H42.5305V45H63.6505V43ZM43.3822 43.4759L41.3342 40.1479L39.6308 41.1961L41.6788 44.5241L43.3822 43.4759ZM41.3669 41.1386C45.0586 34.1416 51.1325 20.6858 59.5789 0.807054L57.7381 0.0249395C49.2885 19.9115 43.245 33.293 39.5981 40.2054L41.3669 41.1386ZM58.6585 1.416H60.5785V-0.584003H58.6585V1.416ZM60.1219 1.30565L67.3539 5.01765L68.2671 3.23834L61.0351 -0.473657L60.1219 1.30565ZM66.925 3.66338L50.605 34.7674L52.376 35.6966L68.696 4.59262L66.925 3.66338ZM50.6624 34.6714L47.8464 38.8314L49.5026 39.9526L52.3186 35.7926L50.6624 34.6714ZM48.734 40.3902L63.774 39.4942L63.655 37.4978L48.615 38.3938L48.734 40.3902ZM64.7131 38.5494L65.3531 26.5814L63.3559 26.4746L62.7159 38.4426L64.7131 38.5494ZM64.4368 27.5246L71.4128 26.9486L71.2482 24.9554L64.2722 25.5314L64.4368 27.5246ZM70.3305 25.952V37.984H72.3305V25.952H70.3305ZM71.3851 38.9825L79.5771 38.5345L79.4679 36.5375L71.2759 36.9855L71.3851 38.9825ZM78.5225 37.536V44H80.5225V37.536H78.5225ZM79.5225 43H71.3305V45H79.5225V43ZM70.3305 44V54.24H72.3305V44H70.3305ZM71.3305 53.24H63.6505V55.24H71.3305V53.24ZM64.6505 54.24V44H62.6505V54.24H64.6505Z" fill="black" mask="url(#path-1-outside-1_5_33)"/>
</svg>
