<svg width="42" height="46" viewBox="0 0 42 46" fill="none" xmlns="http://www.w3.org/2000/svg">
<path d="M21.9812 4.94575L21.9523 4.95131L21.9242 4.96022L20.1133 5.53552L20.0319 5.56139L19.9637 5.61281L19.1169 6.25124L17.8832 7.14224L17.1037 7.14224L16.7388 7.14224L16.6275 7.48971L15.9343 9.65401L15.5687 10.6666L15.5505 10.7171L15.5434 10.7703L15.4192 11.7016L14.296 12.5354L14.2073 12.6012L14.1546 12.6983L13.4252 14.0414L13.4053 14.078L13.3918 14.1174L12.9804 15.3129L12.9417 15.4254L12.9578 15.5433L13.1548 16.9824L13.4466 19.5745L13.6315 21.5187L13.1673 23.292L13.0869 23.599L13.3304 23.8024L15.52 25.6312L16.9292 27.5446L16.9642 27.5921L17.0092 27.6301L18.3781 28.7862L18.4045 28.8085L18.4336 28.8269L19.9579 29.7905L21.0958 30.8522L21.1373 30.891L21.1865 30.9194L22.8452 31.8791L22.9613 31.9463L23.0955 31.9463L25.1505 31.9463L27.2845 32.0716L29.3262 33.4377L30.2107 34.2485L30.2866 34.3181L30.3838 34.352L32.2538 35.0048L32.3978 35.0551L32.5453 35.0164L35.7394 34.1799L35.7596 34.1746L35.7792 34.1677L38.3649 33.2551L38.4035 33.2415L38.4393 33.2218L39.3713 32.7096C38.5047 33.9443 37.2258 35.0912 35.8172 36.0938C33.8851 37.4688 31.7773 38.5246 30.3493 39.1225C27.5181 40.3081 24.4381 40.7771 21.3823 40.488C18.3264 40.1989 15.3891 39.1606 12.8303 37.4652C10.2716 35.7697 8.17053 33.4694 6.71318 30.7679C5.25582 28.0665 4.48719 25.0473 4.47537 21.9779C4.46355 18.9084 5.2089 15.8835 6.64541 13.1709C8.08191 10.4583 10.1652 8.14184 12.7108 6.42671C13.9581 5.58632 16.3082 4.52543 18.947 3.95896C21.1449 3.48715 23.4838 3.37099 25.5271 3.96247L23.916 4.57366L21.9812 4.94575Z" fill="black" stroke="black"/>
<path d="M26.0941 6.63242L26.5685 16.4815C26.6069 17.278 27.5165 17.7114 28.1593 17.2393L37.5107 10.3719L28.7024 17.5081C27.974 18.0983 28.385 19.2762 29.3224 19.2851L41.441 19.3998L29.3148 19.6295C28.3784 19.6472 27.978 20.8273 28.7104 21.4112L37.5107 28.4277L28.1523 21.6768C27.5088 21.2127 26.607 21.6467 26.5684 22.4391L26.0941 32.1672L25.5003 22.4249C25.4522 21.6357 24.5505 21.2119 23.9121 21.6784L14.6775 28.4277L23.2768 21.4066C23.9981 20.8176 23.5937 19.6492 22.6626 19.6321L9.94861 19.3998L22.6568 19.2837C23.5886 19.2752 24.0034 18.1091 23.2862 17.5141L14.6775 10.3719L23.9051 17.2376C24.5428 17.7121 25.4524 17.2889 25.5002 16.4954L26.0941 6.63242Z" fill="black"/>
</svg>
