<svg width="96" height="81" viewBox="0 0 96 81" fill="none" xmlns="http://www.w3.org/2000/svg">
<path d="M30.512 36.9389C28.164 36.2629 25.816 35.9199 23.532 35.9199C20.005 35.9199 17.062 36.7259 14.78 37.7129C16.98 29.6589 22.265 15.7619 32.793 14.1969C33.768 14.0519 34.567 13.3469 34.833 12.3979L37.134 4.16791C37.328 3.47191 37.213 2.72691 36.816 2.12291C36.419 1.51891 35.781 1.11591 35.066 1.01791C34.289 0.91191 33.497 0.85791 32.712 0.85791C20.075 0.85791 7.56002 14.0479 2.27902 32.9339C-0.820976 44.0139 -1.72998 60.6719 5.90602 71.1569C10.179 77.0239 16.413 80.1569 24.435 80.4699C24.468 80.4709 24.5 80.4719 24.533 80.4719C34.431 80.4719 43.208 73.8059 45.878 64.2629C47.473 58.5579 46.752 52.5749 43.846 47.4119C40.971 42.3069 36.236 38.5859 30.512 36.9389Z" fill="#1C1C1C"/>
<path d="M92.471 47.4129C89.596 42.3069 84.861 38.5859 79.137 36.9389C76.789 36.2629 74.441 35.9199 72.158 35.9199C68.631 35.9199 65.687 36.7259 63.405 37.7129C65.605 29.6589 70.89 15.7619 81.419 14.1969C82.394 14.0519 83.192 13.3469 83.459 12.3979L85.76 4.16791C85.954 3.47191 85.839 2.72691 85.442 2.12291C85.046 1.51891 84.408 1.11591 83.692 1.01791C82.916 0.91191 82.124 0.85791 81.338 0.85791C68.701 0.85791 56.186 14.0479 50.904 32.9339C47.805 44.0139 46.896 60.6719 54.533 71.1589C58.805 77.0249 65.04 80.1589 73.061 80.4709C73.094 80.4719 73.126 80.4729 73.16 80.4729C83.057 80.4729 91.835 73.8069 94.505 64.2639C96.098 58.5589 95.376 52.5749 92.471 47.4129Z" fill="#1C1C1C"/>
</svg>
