<svg width="96" height="81" viewBox="0 0 96 81" fill="none" xmlns="http://www.w3.org/2000/svg">
<path d="M64.821 36.9389C67.169 36.2629 69.517 35.9199 71.801 35.9199C75.328 35.9199 78.271 36.7259 80.553 37.7129C78.353 29.6589 73.068 15.7619 62.54 14.1969C61.565 14.0519 60.766 13.3469 60.5 12.3979L58.199 4.16791C58.005 3.47191 58.12 2.72691 58.517 2.12291C58.914 1.51891 59.552 1.11591 60.267 1.01791C61.044 0.91191 61.836 0.85791 62.621 0.85791C75.258 0.85791 87.773 14.0479 93.054 32.9339C96.154 44.0139 97.063 60.6719 89.427 71.1569C85.154 77.0239 78.92 80.1569 70.898 80.4699C70.865 80.4709 70.833 80.4719 70.8 80.4719C60.902 80.4719 52.125 73.8059 49.455 64.2629C47.86 58.5579 48.581 52.5749 51.487 47.4119C54.362 42.3069 59.097 38.5859 64.821 36.9389Z" fill="black"/>
<path d="M2.86209 47.4129C5.73709 42.3069 10.4721 38.5859 16.1961 36.9389C18.5441 36.2629 20.8921 35.9199 23.1751 35.9199C26.7021 35.9199 29.6461 36.7259 31.9281 37.7129C29.7281 29.6589 24.4431 15.7619 13.9141 14.1969C12.9391 14.0519 12.1411 13.3469 11.8741 12.3979L9.57309 4.16791C9.37909 3.47191 9.49409 2.72691 9.89109 2.12291C10.2871 1.51891 10.9251 1.11591 11.6411 1.01791C12.4171 0.91191 13.2091 0.85791 13.9951 0.85791C26.6321 0.85791 39.1471 14.0479 44.4291 32.9339C47.5281 44.0139 48.4371 60.6719 40.8001 71.1589C36.5281 77.0249 30.2931 80.1589 22.2721 80.4709C22.2391 80.4719 22.2071 80.4729 22.1731 80.4729C12.2761 80.4729 3.49809 73.8069 0.828094 64.2639C-0.764906 58.5589 -0.0429089 52.5749 2.86209 47.4129Z" fill="black"/>
</svg>
