<svg width="418" height="178" viewBox="0 0 418 178" fill="none" xmlns="http://www.w3.org/2000/svg">
<path d="M68.0018 107.838L68.0367 107.885L68.0818 107.923L73.4846 112.486L73.5109 112.509L73.54 112.527L79.6728 116.404L84.2648 120.689L84.3063 120.727L84.3555 120.756L90.9019 124.543L91.0181 124.611L91.1523 124.611L99.3059 124.611L108.171 125.131L116.656 130.808L120.23 134.084L120.306 134.154L120.403 134.188L127.783 136.764L127.927 136.814L128.075 136.776L140.681 133.474L140.701 133.469L140.721 133.462L150.926 129.86L150.965 129.846L151.001 129.827L159.332 125.249C156.119 132.18 149.503 138.467 142.216 143.653C134.482 149.158 126.061 153.374 120.35 155.766C108.952 160.538 96.5534 162.426 84.2516 161.263C71.9498 160.099 60.1249 155.919 49.8243 149.094C39.5237 142.268 31.0653 133.008 25.1985 122.133C19.3316 111.258 16.2374 99.1035 16.1898 86.7469C16.1422 74.3902 19.1428 62.2126 24.9257 51.2926C30.7086 40.3725 39.0953 31.0473 49.3431 24.1427C54.4415 20.7076 63.8963 16.4543 74.4699 14.1845C84.6426 12.0007 95.7715 11.6698 105.026 15.5922L94.794 19.4739L87.0324 20.9665L87.0035 20.972L86.9755 20.9809L79.8282 23.2515L79.7468 23.2774L79.6785 23.3288L76.3287 25.8546L76.3204 25.8607L71.0569 29.662L67.5039 29.662L67.1391 29.662L67.0278 30.0095L64.2834 38.577L62.8315 42.5987L62.8132 42.6492L62.8061 42.7025L62.2338 46.9953L57.3008 50.6571L57.2121 50.7229L57.1594 50.8199L54.2805 56.1211L54.2607 56.1577L54.2471 56.1971L52.6237 60.9154L52.5849 61.0279L52.6011 61.1458L53.3807 66.8429L54.5361 77.1035L54.5366 77.1077L55.2917 85.0496L53.3932 92.3009L53.3128 92.6079L53.5564 92.8113L62.3346 100.143L68.0018 107.838Z" fill="black" stroke="black"/>
<path d="M108.39 5L111.13 61.7037C111.399 67.2746 117.757 70.3088 122.257 67.0137L176.549 27.2599L126.468 67.7149C121.334 71.8625 124.267 80.1602 130.867 80.1602H418L130.854 82.5171C124.255 82.5713 121.39 90.8899 126.555 94.9963L176.549 134.74L122.208 95.6547C117.704 92.4147 111.4 95.4534 111.129 100.995L108.39 157L104.961 100.896C104.624 95.3764 98.3206 92.409 93.8515 95.6658L40.2321 134.74L89.344 94.7584C94.4031 90.6398 91.5747 82.4499 85.0522 82.331L12 81L85.0124 80.3348C91.5401 80.2754 94.4404 72.1024 89.4104 67.9414L40.2321 27.2599L93.8023 67.0019C98.2669 70.314 104.625 67.3509 104.96 61.8019L108.39 5Z" fill="black"/>
</svg>
