<svg width="462" height="376" viewBox="0 0 462 376" fill="none" xmlns="http://www.w3.org/2000/svg">
<path d="M236.858 0L245.043 170.555C245.081 171.353 245.992 171.786 246.635 171.312L404.341 55.0639L245.574 184.173C244.847 184.764 245.259 185.94 246.195 185.949L462 188L246.187 192.102C245.252 192.12 244.851 193.298 245.582 193.883L404.341 320.936L246.628 206.74C245.984 206.275 245.081 206.709 245.042 207.502L236.858 376L226.626 207.488C226.578 206.698 225.674 206.274 225.036 206.742L69.374 320.936L224.412 193.878C225.131 193.288 224.726 192.122 223.796 192.105L0 188L223.79 185.948C224.721 185.939 225.136 184.775 224.421 184.179L69.374 55.0639L225.029 171.31C225.666 171.787 226.578 171.363 226.625 170.569L236.858 0Z" fill="white"/>
</svg>
